<svg width="32" height="32" viewBox="0 0 32 32" fill="none" xmlns="http://www.w3.org/2000/svg">
<path d="M16 0C7.16342 0 0 7.16342 0 16C0 24.8366 7.16342 32 16 32C24.8366 32 32 24.8366 32 16C32 7.16342 24.8366 0 16 0ZM16 3.09677C23.1311 3.09677 28.9032 8.86781 28.9032 16C28.9032 23.1311 23.1322 28.9032 16 28.9032C8.8689 28.9032 3.09677 23.1322 3.09677 16C3.09677 8.8689 8.86781 3.09677 16 3.09677ZM25.0454 11.5011L23.5915 10.0354C23.2904 9.73187 22.8002 9.72987 22.4966 10.031L13.3772 19.0772L9.51961 15.1884C9.21852 14.8848 8.72832 14.8828 8.42477 15.1839L6.95903 16.6379C6.65548 16.939 6.65348 17.4292 6.95464 17.7328L12.8115 23.637C13.1126 23.9406 13.6028 23.9426 13.9063 23.6414L25.0411 12.596C25.3446 12.2948 25.3465 11.8046 25.0454 11.5011Z" fill="#30B110"/>
</svg>
