<svg width="32" height="33" viewBox="0 0 32 33" fill="none" xmlns="http://www.w3.org/2000/svg">
<path d="M16 0.66333C7.16129 0.66333 0 7.75372 0 16.5049C0 25.2561 7.16129 32.3465 16 32.3465C24.8387 32.3465 32 25.2561 32 16.5049C32 7.75372 24.8387 0.66333 16 0.66333ZM16 29.2804C8.87097 29.2804 3.09677 23.5634 3.09677 16.5049C3.09677 9.44647 8.87097 3.72944 16 3.72944C23.129 3.72944 28.9032 9.44647 28.9032 16.5049C28.9032 23.5634 23.129 29.2804 16 29.2804ZM22.5677 12.5317L18.5548 16.5049L22.5677 20.4781C22.871 20.7783 22.871 21.2638 22.5677 21.564L21.1097 23.0076C20.8065 23.3079 20.3161 23.3079 20.0129 23.0076L16 19.0345L11.9871 23.0076C11.6839 23.3079 11.1935 23.3079 10.8903 23.0076L9.43226 21.564C9.12903 21.2638 9.12903 20.7783 9.43226 20.4781L13.4452 16.5049L9.43226 12.5317C9.12903 12.2315 9.12903 11.7461 9.43226 11.4458L10.8903 10.0022C11.1935 9.70198 11.6839 9.70198 11.9871 10.0022L16 13.9754L20.0129 10.0022C20.3161 9.70198 20.8065 9.70198 21.1097 10.0022L22.5677 11.4458C22.871 11.7461 22.871 12.2315 22.5677 12.5317Z" fill="#BE0A26"/>
</svg>
